<?xml version="1.0" standalone="no"?>
<!DOCTYPE svg PUBLIC "-//W3C//DTD SVG 20010904//EN"
 "http://www.w3.org/TR/2001/REC-SVG-20010904/DTD/svg10.dtd">
<svg version="1.0" xmlns="http://www.w3.org/2000/svg"
 width="1156.000000pt" height="1156.000000pt" viewBox="0 0 1156.000000 1156.000000"
 preserveAspectRatio="xMidYMid meet">
<metadata>
Created by potrace 1.11, written by Peter Selinger 2001-2013
</metadata>
<g transform="translate(0.000000,1156.000000) scale(0.100000,-0.100000)"
fill="#000000" stroke="none">
<path d="M1855 11553 c-61 -8 -221 -32 -240 -37 -11 -2 -42 -9 -70 -15 -123
-28 -265 -80 -440 -162 -68 -32 -213 -122 -310 -194 -153 -113 -419 -405 -482
-529 -8 -17 -21 -38 -28 -46 -15 -19 -88 -153 -87 -160 1 -3 -10 -28 -23 -56
-62 -132 -121 -329 -145 -489 -7 -44 -15 -89 -18 -100 -10 -30 -11 -7828 -2
-7920 5 -44 11 -98 15 -120 3 -22 8 -53 11 -70 9 -58 66 -270 80 -299 8 -16
14 -33 14 -39 0 -18 92 -222 128 -282 46 -78 123 -199 132 -205 3 -3 22 -27
40 -55 35 -52 274 -295 324 -330 16 -11 40 -29 55 -40 26 -21 68 -50 100 -70
9 -6 36 -23 60 -39 170 -109 514 -239 695 -261 23 -3 70 -11 106 -18 93 -17
7924 -18 8020 0 36 7 85 15 110 18 25 3 63 11 85 17 22 5 50 12 63 14 40 8
232 75 301 106 121 54 136 62 236 123 151 92 238 160 371 291 227 223 371 449
485 759 43 117 70 230 99 415 17 109 18 311 18 4010 0 2142 -3 3922 -8 3955
-5 33 -11 85 -15 115 -19 150 -90 386 -166 551 -44 95 -128 243 -164 291 -11
14 -27 36 -35 48 -68 102 -283 324 -390 403 -36 27 -72 54 -80 60 -37 30 -223
136 -305 174 -156 72 -379 142 -502 159 -24 3 -81 12 -126 19 -68 12 -749 14
-3982 13 -2145 -1 -3913 -3 -3930 -5z"/>
</g>
</svg>
